<?xml version="1.0" encoding="utf-8"?>
<!-- Generator: Adobe Illustrator 17.0.0, SVG Export Plug-In . SVG Version: 6.00 Build 0)  -->
<!DOCTYPE svg PUBLIC "-//W3C//DTD SVG 1.1//EN" "http://www.w3.org/Graphics/SVG/1.1/DTD/svg11.dtd">
<svg version="1.1" id="Layer_1" xmlns="http://www.w3.org/2000/svg" xmlns:xlink="http://www.w3.org/1999/xlink" x="0px" y="0px"
	 width="253.328px" height="246.856px" viewBox="0 0 253.328 246.856" enable-background="new 0 0 253.328 246.856"
	 xml:space="preserve">
<path fill-rule="evenodd" clip-rule="evenodd" fill="#FFFFFF" d="M26.048,221.681l-19.486,8.771l-3.876-21.027
	C-8.22,143.57,13.749,92.653,74.611,61.619L98.26,49.561c-0.476-9.116-0.285-18.563,0.532-28.301L100.94,0l20.148,7.157
	c32.244,12.111,61.081,31.403,77.67,62.574c12.094,22.722,15.698,48.152,14.372,73.615l-1.382,26.512
	c8.133,4.145,16.219,9.035,24.243,14.611l17.337,12.49l-16.272,13.871c-51.58,42.372-106.658,48.805-163.964,11.614l-22.268-14.452
	C43.167,212.963,34.889,217.522,26.048,221.681L26.048,221.681z M48.273,150.971l32.328-77.601
	c-52.521,26.78-76.769,70.525-64.144,138.199c62.834-28.127,88.663-72.113,80.799-130.54L48.273,150.971L48.273,150.971z
	 M148.917,75.863l-36.573-57.853c64.92,22.904,90.68,65.776,87.611,124.651L148.917,75.863l-36.573-57.851
	c-7.058,68.479,18.119,112.841,72.652,135.243L148.917,75.863L148.917,75.863z M163.635,200.577L80.273,211.38
	c49.452,32.094,99.461,31.223,151.757-13.55l-3.271,0.132l3.27-0.132c-55.775-40.352-106.783-40.727-153.449-4.704L163.635,200.577
	L163.635,200.577z M92.008,168.619c21.546-11.642,43.329-16.207,65.047-14.741c-20.856-12.838-35.699-29.415-45.288-48.95
	C111.073,129.403,104.134,150.547,92.008,168.619z"/>
<path fill-rule="evenodd" clip-rule="evenodd" fill="#FFFFFF" d="M47.483,488.007h12.375v-42.52H47.483V488.007L47.483,488.007z
	 M59.858,433.538h9.641h11.172v-11.25c-19.032,0-35.063,0-54,0v11.25h10.406h10.406H59.858L59.858,433.538z M161.413,475.819H124.57
	v-14.812h27.84v-11.531h-14.655H124.57h-12.282v38.531h49.125V475.819L161.413,475.819z M124.57,434.289h13.185h23.658v-12.001
	h-49.125v12.001H124.57L124.57,434.289z M253.499,487.163l-19.875-22.406c12.469-2.531,16.594-11.625,16.594-20.671
	c0-11.392-8.156-21.704-23.626-21.798c-10.406,0.094-20.812,0-31.218,0v65.719h12.375v-16.799v-5.138v-11.156v-0.735V433.82h18.844
	c7.782,0,11.251,5.266,11.251,10.548c0,5.281-3.376,10.546-11.251,10.546h-16.619l13.891,15.981l-0.001,0.001l14.917,17.111h14.719
	V487.163L253.499,487.163z M341.085,487.163l-19.875-22.406c12.469-2.531,16.595-11.625,16.595-20.671
	c0-11.392-8.156-21.704-23.626-21.798c-10.406,0.094-20.812,0-31.219,0v65.719h12.375v-16.799v-5.138v-11.156v-0.735V433.82h18.844
	c7.782,0,11.251,5.266,11.251,10.548c0,5.281-3.376,10.546-11.251,10.546h-16.619l13.891,15.981l-0.001,0.001l14.917,17.111h14.719
	V487.163L341.085,487.163z M424.286,488.007h13.5l-29.438-65.719h-13.5l-31.145,65.719h15.114l4.268-9.388l8.55-19.628l9.963-22.889
	l10.04,23.064l9.882,22.654L424.286,488.007L424.286,488.007z M524.133,487.163l-19.875-22.406
	c12.469-2.531,16.595-11.625,16.595-20.671c0-11.392-8.156-21.704-23.626-21.798c-10.406,0.094-20.812,0-31.218,0v65.719h12.375
	v-16.799v-5.138v-11.156v-0.735V433.82h18.844c7.782,0,11.251,5.266,11.251,10.548c0,5.281-3.376,10.546-11.251,10.546h-16.619
	l13.891,15.981l-0.001,0.001l14.917,17.111h14.719V487.163L524.133,487.163z M565.876,488.007v-65.719h-12.282v65.719H565.876
	L565.876,488.007z M647.087,422.477v37.593c0,11.25-5.813,18.094-16.031,18.094c-10.219,0-16.969-6.282-16.969-18.094v-37.593
	h-12.281v37.593c0,19.781,13.406,29.344,29.156,29.344c16.5,0,28.406-9.938,28.406-29.344v-37.593H647.087L647.087,422.477z
	 M752.955,488.007h12.375v-48.484l-12.375,16.04V488.007L752.955,488.007z M765.33,423.995l-12.375,16.467v-0.001l-1.7,2.262
	l-5.98,7.958v0.002l-13.696,18.23h-2.437l-20.906-28.546v47.64h-12.375v-65.53h14.251l20.531,28.171l20.531-28.171h14.157V423.995z"
	/>
</svg>
