<svg xmlns="http://www.w3.org/2000/svg" width="253" height="247" viewBox="0 0 253.3 246.9"><path d="M26 221.7l-19.5 8.8 -3.9-21C-8.2 143.6 13.7 92.7 74.6 61.6L98.3 49.6c-0.5-9.1-0.3-18.6 0.5-28.3L100.9 0l20.1 7.2c32.2 12.1 61.1 31.4 77.7 62.6 12.1 22.7 15.7 48.2 14.4 73.6l-1.4 26.5c8.1 4.1 16.2 9 24.2 14.6l17.3 12.5 -16.3 13.9c-51.6 42.4-106.7 48.8-164 11.6l-22.3-14.5C43.2 213 34.9 217.5 26 221.7L26 221.7zM92 168.6c21.5-11.6 43.3-16.2 65-14.7 -20.9-12.8-35.7-29.4-45.3-48.9C111.1 129.4 104.1 150.5 92 168.6z"/><path d="M163.6 200.6l-85.1-7.5c46.7-36 97.7-35.6 153.5 4.7L163.6 200.6z" fill="#D89C2E"/><path d="M163.6 200.6L80.3 211.4c49.5 32.1 99.5 31.2 151.8-13.5L163.6 200.6z" fill="#FFCB05"/><path d="M148.9 75.9l36.1 77.4c-54.5-22.4-79.7-66.8-72.7-135.2L148.9 75.9z" fill="#47A5AE"/><path d="M148.9 75.9l51 66.8c3.1-58.9-22.7-101.7-87.6-124.7L148.9 75.9z" fill="#56C5D0"/><path d="M48.3 151L97.3 81c7.9 58.4-18 102.4-80.8 130.5L48.3 151z" fill="#5D8E43"/><path d="M48.3 151l32.3-77.6c-52.5 26.8-76.8 70.5-64.1 138.2L48.3 151z" fill="#91BE3F"/></svg>